# xmcd CD database file
#
# Track frame offsets:
#	150
#	24269
#	45972
#	67990
#	83205
#	110936
#	143334
#	168752
#	198757
#	222357
#	245487
#	265536
#	287096
#	306406
#
# Disc length: 4416 seconds
#
# Revision: 0
# Processed by: cddbd v1.5.2PL0 Copyright (c) Steve Scherf et al.
# Submitted via: CDex 1.51
#
DISCID=b9113e0e
DTITLE=Mayr Wolfi - Slow down the Blues
DYEAR=1900
DGENRE=Blues
TTITLE0=Everyday i have the Blues
TTITLE1=Animal Blues
TTITLE2=You've got a Friend
TTITLE3=Harp Blues
TTITLE4=King of the Road - a Song for Gigl
TTITLE5=Gypsy Baby
TTITLE6=Open slide Blues
TTITLE7=Slow down the Blues
TTITLE8=There is no difference
TTITLE9=Scat the Blues
TTITLE10=Why you mean
TTITLE11=On Brodway
TTITLE12=Slowly way
TTITLE13=Bonus Track
EXTD=
EXTT0=
EXTT1=
EXTT2=
EXTT3=
EXTT4=
EXTT5=
EXTT6=
EXTT7=
EXTT8=
EXTT9=
EXTT10=
EXTT11=
EXTT12=
EXTT13=
PLAYORDER=
